<svg viewBox="0 0 24 24" xmlns="http://www.w3.org/2000/svg">
  <path d="M20.52 3.48A11.86 11.86 0 0 0 12.06 0C5.5 0 .21 5.3.21 11.86a11.7 11.7 0 0 0 1.64 6l-1.84 6 6.2-1.63a11.86 11.86 0 0 0 5.85 1.57h.01c6.56 0 11.86-5.3 11.86-11.86 0-3.18-1.24-6.18-3.41-8.41ZM12.07 21.3h-.01a9.5 9.5 0 0 1-4.83-1.32l-.35-.2-3.68.97.98-3.58-.23-.37a9.5 9.5 0 1 1 8.12 4.5Zm5.19-7.07c-.28-.14-1.64-.8-1.9-.9-.26-.1-.45-.14-.64.14-.19.28-.73.9-.9 1.09-.17.19-.33.21-.61.07-.28-.14-1.2-.44-2.3-1.41-.85-.76-1.43-1.69-1.6-1.97-.17-.28-.02-.43.12-.57.12-.12.28-.33.42-.49.14-.16.19-.28.28-.47.09-.19.05-.35-.02-.49-.07-.14-.64-1.56-.88-2.13-.23-.56-.47-.48-.64-.49l-.54-.01c-.19 0-.49.07-.75.35-.26.28-.98.96-.98 2.34s1 2.71 1.14 2.9c.14.19 1.96 2.99 4.75 4.2.66.28 1.17.44 1.57.57.66.21 1.26.18 1.74.11.53-.08 1.64-.67 1.87-1.32.23-.65.23-1.2.16-1.32-.07-.12-.26-.19-.54-.33Z" fill="#8B5E3C"/>
</svg>